Coordinates
version=1
nRows=21
nColumns=22
inDegrees=yes

Units are S.I. units (second, meters, Newtons, ...)
If the header above contains a line with 'inDegrees', this indicates whether rotational values are in degrees (yes) or radians (no).

endheader
time	pelvis_tilt	pelvis_list	pelvis_rotation	pelvis_tx	pelvis_ty	pelvis_tz	hip_flexion_r	hip_adduction_r	hip_rotation_r	knee_angle_r	ankle_angle_r	subtalar_angle_r	hip_flexion_l	hip_adduction_l	hip_rotation_l	knee_angle_l	ankle_angle_l	subtalar_angle_l	lumbar_extension	lumbar_bending	lumbar_rotation
      0.01000000	    -12.35336434	     -2.76762541	     -2.14443285	     -0.48529610	      0.98088338	      0.33350207	     18.96155124	      4.07031847	     -3.27517612	    -16.87673655	     15.76649607	     -5.68490224	     19.25897280	     -2.11541981	     -5.67150764	    -18.53981423	     18.84694469	     -2.91247198	      5.81868789	      3.65238538	      2.53298895
      0.02000000	    -12.35117189	     -2.76641756	     -2.14574642	     -0.48523500	      0.98089391	      0.33355856	     18.95581892	      4.07309613	     -3.27441049	    -16.87745569	     15.76507274	     -5.68326086	     19.25492163	     -2.11912519	     -5.66896414	    -18.54660688	     18.84614157	     -2.91336657	      5.82451406	      3.64858382	      2.52995360
      0.03000000	    -12.34823542	     -2.76369368	     -2.14697564	     -0.48517020	      0.98090674	      0.33362503	     18.94914692	      4.07458669	     -3.27276903	    -16.87825161	     15.76412653	     -5.68190143	     19.24968849	     -2.12204919	     -5.66402864	    -18.55280270	     18.84567475	     -2.91420547	      5.82889369	      3.64213740	      2.52753207
      0.04000000	    -12.25963992	     -2.74301588	     -2.12487775	     -0.48503786	      0.98107484	      0.33365080	     18.82765337	      4.04948529	     -3.26845020	    -16.84148479	     15.77665656	     -5.65019195	     19.12610377	     -2.08670896	     -5.60115839	    -18.50850447	     18.83114706	     -2.94572936	      5.73296284	      3.60761799	      2.49732996
      0.05000000	    -12.20078921	     -2.73710197	     -2.13414406	     -0.48494353	      0.98116870	      0.33373699	     18.76233031	      4.04789986	     -3.26925005	    -16.84719183	     15.78667933	     -5.64871993	     19.06065442	     -2.08900329	     -5.62289940	    -18.51883219	     18.83720572	     -2.96512720	      5.66774613	      3.59524843	      2.51882725
      0.06000000	    -12.19773302	     -2.73451785	     -2.13455512	     -0.48486013	      0.98117453	      0.33381832	     18.75443419	      4.05016637	     -3.26852469	    -16.84848419	     15.78655510	     -5.64871763	     19.05515456	     -2.09077819	     -5.61774197	    -18.52543540	     18.83671083	     -2.96528441	      5.67585698	      3.58791549	      2.51961951
      0.07000000	    -12.18159244	     -2.72589956	     -2.12567316	     -0.48479252	      0.98119695	      0.33389344	     18.72476197	      4.04498396	     -3.26468269	    -16.83301004	     15.79301663	     -5.65094630	     19.04614998	     -2.08131158	     -5.59576343	    -18.54829128	     18.83859250	     -2.96710829	      5.66247070	      3.56756936	      2.52575167
      0.08000000	    -12.17746942	     -2.72469355	     -2.12638196	     -0.48470555	      0.98119776	      0.33397238	     18.71656535	      4.04808440	     -3.26565843	    -16.83727083	     15.79373630	     -5.65140565	     19.03932894	     -2.08249809	     -5.59385751	    -18.55418069	     18.83857655	     -2.96744733	      5.66971543	      3.56360514	      2.52361777
      0.09000000	    -12.09186538	     -2.73862364	     -2.10097034	     -0.48457601	      0.98132027	      0.33402081	     18.60339021	      4.05648819	     -3.30797809	    -16.81320722	     15.82536508	     -5.67428648	     18.94955032	     -2.09164320	     -5.58144923	    -18.56722847	     18.86264753	     -2.97775330	      5.57466886	      3.57016765	      2.48541646
      0.10000000	    -12.08896018	     -2.73688796	     -2.10157795	     -0.48448430	      0.98131667	      0.33409362	     18.59521692	      4.05880148	     -3.30805183	    -16.81551186	     15.82379252	     -5.67438977	     18.94506027	     -2.09162079	     -5.57927335	    -18.57575693	     18.86209034	     -2.97793633	      5.58312871	      3.56678466	      2.48790920
      0.11000000	    -12.07571176	     -2.73620294	     -2.09592648	     -0.48441179	      0.98132149	      0.33416058	     18.56979906	      4.06083350	     -3.31355551	    -16.80211819	     15.82369089	     -5.67783757	     18.94504957	     -2.09296284	     -5.57886860	    -18.61139980	     18.86758658	     -2.97971342	      5.57309275	      3.56056102	      2.49789453
      0.12000000	    -12.07239990	     -2.73559863	     -2.09669316	     -0.48431703	      0.98131540	      0.33422688	     18.56222866	      4.06393975	     -3.31449706	    -16.80659250	     15.82406996	     -5.67858879	     18.93942141	     -2.09442896	     -5.57858241	    -18.61938766	     18.86865009	     -2.97988065	      5.58065800	      3.56000836	      2.49585781
      0.13000000	    -12.04690243	     -2.74746265	     -2.08449905	     -0.48424800	      0.98132808	      0.33427611	     18.52675842	      4.07576564	     -3.33249848	    -16.80037536	     15.84052748	     -5.69072766	     18.93553211	     -2.11008559	     -5.59550507	    -18.67104009	     18.89340973	     -2.98145646	      5.55335661	      3.57120617	      2.48008450
      0.14000000	    -12.04468101	     -2.74676976	     -2.08636467	     -0.48415996	      0.98132250	      0.33433912	     18.52026364	      4.07871473	     -3.33365309	    -16.80377573	     15.84055279	     -5.69163510	     18.93020620	     -2.11143316	     -5.59449811	    -18.67645314	     18.89458449	     -2.98120121	      5.56003144	      3.57181490	      2.47853369
      0.15000000	    -12.02345383	     -2.75905968	     -2.08002644	     -0.48408328	      0.98133416	      0.33439257	     18.48689655	      4.09255208	     -3.34559296	    -16.79291235	     15.85419863	     -5.70585983	     18.92400275	     -2.12862434	     -5.60994783	    -18.71755898	     18.92056925	     -2.97841229	      5.53835894	      3.58598373	      2.46440936
      0.16000000	    -12.02167420	     -2.75799843	     -2.08162828	     -0.48399480	      0.98132810	      0.33444575	     18.48071634	      4.09443324	     -3.34539322	    -16.79657631	     15.85377592	     -5.70664340	     18.91937705	     -2.12943031	     -5.60885939	    -18.72240721	     18.92117184	     -2.97799005	      5.54515882	      3.58720524	      2.46347109
      0.17000000	    -12.01937654	     -2.75649461	     -2.08558428	     -0.48390441	      0.98132090	      0.33449857	     18.47323335	      4.09606709	     -3.34490073	    -16.79852522	     15.85454721	     -5.70787991	     18.91531228	     -2.13095550	     -5.60802870	    -18.73101573	     18.92284064	     -2.97756276	      5.55075734	      3.58881650	      2.46151751
      0.18000000	    -12.00442622	     -2.76434883	     -2.08675287	     -0.48383233	      0.98132523	      0.33454754	     18.44286602	      4.10902864	     -3.33151475	    -16.78070560	     15.86951306	     -5.72025231	     18.91565556	     -2.14516310	     -5.61776235	    -18.77209409	     18.94625335	     -2.97449863	      5.53324554	      3.60050742	      2.45320889
      0.19000000	    -12.00306108	     -2.76317561	     -2.09077610	     -0.48373306	      0.98131754	      0.33459186	     18.43603371	      4.11046181	     -3.33119551	    -16.78374554	     15.86929773	     -5.72133629	     18.91012551	     -2.14789156	     -5.61645798	    -18.77679183	     18.94748299	     -2.97401740	      5.54048733	      3.60243893	      2.45218370
      0.20000000	    -12.00232786	     -2.76138164	     -2.09716991	     -0.48364152	      0.98131054	      0.33463173	     18.42920979	      4.11147389	     -3.33039763	    -16.78392550	     15.87007358	     -5.72260208	     18.90592863	     -2.15020722	     -5.61481539	    -18.78272241	     18.94942855	     -2.97363678	      5.54548942	      3.60498543	      2.45096570
      0.21000000	    -11.98985597	     -2.77441185	     -2.10286607	     -0.48353602	      0.98132070	      0.33468227	     18.38931241	      4.13242897	     -3.30483888	    -16.74802444	     15.88357146	     -5.74045038	     18.89484583	     -2.17079249	     -5.62589779	    -18.80161167	     18.98166076	     -2.96968657	      5.53610727	      3.62208697	      2.45563753
